<?xml version="1.0" standalone="no"?>
<!DOCTYPE svg PUBLIC "-//W3C//DTD SVG 1.1//EN" "http://www.w3.org/Graphics/SVG/1.1/DTD/svg11.dtd" >
<!--
2013-9-30: Created.
-->
<svg>
<metadata>
Created by iconfont
</metadata>
<defs>

<font id="iconfont" horiz-adv-x="1024" >
  <font-face
    font-family="iconfont"
    font-weight="500"
    font-stretch="normal"
    units-per-em="1024"
    ascent="896"
    descent="-128"
  />
    <missing-glyph />
    
    <glyph glyph-name="dianhua1" unicode="&#58993;" d="M809.370223 486.120842c-93.231381 30.68179-55.840796 89.130993-111.830995 111.832018-95.059006 38.546921-186.391131 37.281091-186.391131 37.281091s-91.031273 0.968048-186.387038-37.281091c-56.103786-22.512736-18.60473-81.149205-111.836111-111.832018-98.559736-32.432667-150.004409 15.096836-148.959613 73.812099 0.740874 39.36352 24.972764 83.760682 74.405617 112.578008 126.557394 73.808006 372.776122 74.55502 372.776122 74.55502s246.223844-0.748037 372.780215-74.55502c49.055253-28.630061 73.325006-72.579015 74.365708-111.721501C959.860702 501.665887 908.4191 453.540819 809.370223 486.120842L809.370223 486.120842zM383.915321 512.59582l63.444984 0 0-63.956637 127.913275 0 0 63.956637 63.956637 0 0-63.956637 256.167311-223.464491 0-149.109016c0-41.154305-44.871977-74.557066-86.027305-74.557066L212.923926 1.508609c-41.153282 0-85.005023 33.403784-85.005023 74.557066L127.918903 225.174692l255.997442 223.464491L383.916345 512.59582 383.915321 512.59582zM511.898181 96.14192c70.621431 0.001023 127.877459 57.256028 127.877459 127.872343 0 70.623477-57.256028 127.878482-127.877459 127.878482-70.616314 0-127.873366-57.255005-127.873366-127.878482C384.024815 153.397948 441.281867 96.14192 511.898181 96.14192L511.898181 96.14192z"  horiz-adv-x="1024" />

    
    <glyph glyph-name="shijian" unicode="&#58948;" d="M512.099991 384m-344.244706 0a344.244706 344.244706 0 1 1 688.489411 0 344.244706 344.244706 0 1 1-688.489411 0ZM512.099991-128A512 512 0 0 0 44.071755 591.811765a30.117647 30.117647 0 0 0 39.755294 15.36 30.117647 30.117647 0 0 0 15.36-39.755294A445.741176 445.741176 0 0 1 60.335285 384 451.764706 451.764706 0 1 1 399.459991 821.609412a30.117647 30.117647 0 1 0-15.058824 58.428235A520.432941 520.432941 0 0 0 512.099991 896a512 512 0 0 0 0-1024zM512.099991 651.143529a30.117647 30.117647 0 0 0-30.117647 30.117647V728.244706a30.117647 30.117647 0 0 0 60.235294 0v-46.98353a30.117647 30.117647 0 0 0-30.117647-30.117647zM214.838814 353.882353H167.855285a30.117647 30.117647 0 0 0 0 60.235294h46.983529a30.117647 30.117647 0 1 0 0-60.235294zM512.099991 9.637647a30.117647 30.117647 0 0 0-30.117647 30.117647v46.98353a30.117647 30.117647 0 0 0 60.235294 0v-46.98353a30.117647 30.117647 0 0 0-30.117647-30.117647zM856.344696 353.882353h-46.983529a30.117647 30.117647 0 0 0 0 60.235294h46.983529a30.117647 30.117647 0 0 0 0-60.235294zM736.476461 226.484706a34.032941 34.032941 0 0 0-15.058823 3.915294l-224.075294 127.397647a30.117647 30.117647 0 0 0-14.155295 17.769412l-46.983529 162.635294a30.117647 30.117647 0 0 0 57.825882 16.564706l43.670589-150.588235 213.534117-120.470589a30.117647 30.117647 0 0 0 11.444706-40.96 30.117647 30.117647 0 0 0-26.202353-16.263529zM207.911755 727.642353a30.117647 30.117647 0 0 0-18.974117 53.609412c9.336471 7.529412 18.672941 14.456471 28.310588 21.383529a30.117647 30.117647 0 0 0 34.635294-49.091765c-8.432941-6.023529-16.865882-12.348235-24.997647-18.974117a30.117647 30.117647 0 0 0-18.974118-6.927059z"  horiz-adv-x="1024" />

    
    <glyph glyph-name="dizhi1" unicode="&#58985;" d="M414.3 714.3l-225.8-58.1v-548.8l225.8 58.1 196-116.2L836 107.4V656.2l-193.1-48.8M608.8 38.6L412.7 154.8l-234.2-60.3V664l233.3 60 5-19.3-218.3-56.2v-528.2l217.3 55.9 196-116.1L826 115.2V643.4l-180.6-45.7-4.9 19.4 205.5 52v-569.4zM571.5 385.3l-68-126-64.4 126c-53.7 24.5-93.1 80.5-93.1 140 0 84 71.6 154 157.5 154s157.5-70 157.5-154c0-59.5-35.8-115.5-89.5-140zM503.3 237.8l-71.5 139.9c-26.7 12.9-50.6 33.7-67.6 58.9-18.4 27.2-28.1 57.9-28.1 88.7 0 43.3 17.6 84.4 49.5 115.6 31.9 31.2 73.8 48.4 118 48.4s86.1-17.2 118-48.4c31.9-31.2 49.5-72.3 49.5-115.6 0-31.1-9.1-61.7-26.2-88.5-16.5-25.8-39.3-46.2-66.1-59.1l-75.5-139.9z m0.2 431.5c-38.9 0-75.8-15.1-104-42.6-28.1-27.4-43.5-63.4-43.5-101.4 0-26.8 8.5-53.6 24.7-77.5 15.6-23.2 37.9-42.1 62.5-53.4l3.2-1.4 57.4-112.2L564.3 393l3.1 1.4c50 22.8 83.6 75.4 83.6 130.9 0 37.9-15.5 73.9-43.5 101.4-28.1 27.5-65 42.6-104 42.6zM512.3 530.6m-43.8 0a43.8 43.8 0 1 1 87.6 0 43.8 43.8 0 1 1-87.6 0ZM512.3 476.8c-29.6 0-53.8 24.1-53.8 53.8s24.1 53.8 53.8 53.8c29.6 0 53.7-24.1 53.7-53.8s-24.1-53.8-53.7-53.8z m0 87.5c-18.6 0-33.8-15.1-33.8-33.8s15.1-33.8 33.8-33.8S546 512 546 530.6s-15.1 33.7-33.7 33.7zM608.5 49.3v350M598.5 399.3h20v-350h-20zM416 647.3v67M406 714.3h20v-67h-20zM416 171.8V399.3M406 399.3h20v-227.5h-20zM469.5 678.3l-62.2 37M402.203 706.684l10.224 17.188 62.22-37.011-10.223-17.188z"  horiz-adv-x="1024" />

    
    <glyph glyph-name="juli" unicode="&#58914;" d="M191.829333 116.864c-10.112-31.616-16.298667-56.362667-18.517333-74.197333h677.376c-2.218667 17.834667-8.405333 42.581333-18.517333 74.197333a8.533333 8.533333 0 0 0 8.106666 11.136h68.693334a12.8 12.8 0 0 0 12.458666-9.984c11.52-50.773333 17.237333-90.069333 17.237334-118.016 0-7.466667-0.426667-17.664-1.28-30.72a12.8 12.8 0 0 0-12.8-11.946667H99.413333a12.8 12.8 0 0 0-12.8 11.946667C85.76-17.621333 85.333333-7.424 85.333333 0c0 27.946667 5.76 67.285333 17.237334 118.016A12.8 12.8 0 0 0 115.072 128h68.650667a8.533333 8.533333 0 0 0 8.106666-11.136z m230.613334 305.493333l79.658666 79.658667a21.333333 21.333333 0 0 0 30.165334 0l30.165333-30.165333a21.333333 21.333333 0 0 0 0-30.165334l-79.658667-79.658666 110.293334-146.688 159.402666 474.624L276.053333 532.352l146.346667-109.994667zM166.186667 508.288a46.933333 46.933333 0 0 0 13.44 82.048l618.965333 204.757333a46.933333 46.933333 0 0 0 59.221333-59.52L650.666667 119.04a46.933333 46.933333 0 0 0-82.005334-13.226667l-172.8 229.76-229.717333 172.757334z"  horiz-adv-x="1024" />

    
    <glyph glyph-name="caiyouduo_hemaixiangqing-dianzhuchupiao" unicode="&#58999;" d="M931.84 497.92l-55.68 152.533333c-4.266667 11.733333-15.36 19.413333-27.733333 19.413334H176.853333c-12.373333 0-23.253333-7.68-27.733333-19.2l-56.746667-151.466667a104.256 104.256 0 0 1 82.986667-140.8c4.053333-0.426667 8.32-0.64 12.373333-0.853333a108.757333 108.757333 0 0 1 107.946667 107.946666 108.757333 108.757333 0 0 1 107.946667-107.946666 108.757333 108.757333 0 0 1 107.946666 107.946666 108.757333 108.757333 0 0 1 107.946667-107.946666 108.757333 108.757333 0 0 1 107.946667 107.946666 108.757333 108.757333 0 0 1 107.946666-107.946666c12.373333 0 24.533333 2.133333 36.266667 6.4 53.546667 20.693333 80.426667 80.426667 60.16 133.973333zM728.746667 106.453333H295.253333v204.8H159.573333v-306.56c0.213333-22.826667 18.56-41.173333 41.173334-41.173333h622.506666c22.613333 0.213333 41.173333 18.56 41.173334 41.173333V311.253333h-135.68v-204.8zM241.493333 719.146667h540.8c23.466667 0 42.666667 19.2 42.666667 42.666666s-19.2 42.666667-42.666667 42.666667H241.493333c-23.466667 0-42.666667-19.2-42.666666-42.666667s19.2-42.666667 42.666666-42.666666z"  horiz-adv-x="1024" />

    
    <glyph glyph-name="pintuangou" unicode="&#58933;" d="M980.35712 101.9392l0.3584 0.04096L939.6224 636.22144l-0.3584-0.06144c-1.34656 10.0352-9.61024 17.90464-19.99872 17.90464l-143.84128 0 0 41.09312c0 90.7776-73.6 164.38272-164.3776 164.38272-61.28128 0-114.61632-33.59232-142.89408-83.31776 14.86848-1.52064 29.21984-4.77184 42.98752-9.33376 22.3744 31.10912 58.65472 51.55328 99.90656 51.55328 68.08576 0 123.2896-55.20384 123.2896-123.2896l0-41.09312-99.29216 0c5.73952-13.06624 10.23488-26.79296 13.12256-41.09824l86.16448 0 0-41.09312 20.73088 0c7.12192 0 13.94688-1.36704 20.36736-3.66592l0 44.76416 124.85632 0 31.60576-410.95168-91.32544 0 3.16928-41.088 91.29984 0 3.1744-41.09824-91.32544 0 3.16928-41.09824 110.3104 0c11.35616 0 20.54656 9.1904 20.54656 20.55168C980.89984 100.20864 980.50048 101.01248 980.35712 101.9392L980.35712 101.9392zM816.3328-21.30944l-41.09824 534.24128-0.35328-0.04096c-1.34656 10.01984-9.61024 17.88416-19.99872 17.88416l-143.84128 0 0 41.09312c0 90.78272-73.6 164.38272-164.38272 164.38272-90.7776 0-164.3776-73.6-164.3776-164.38272l0-41.09312L138.4448 530.77504c-10.3936 0-18.64192-7.86432-20.00384-17.88416l-0.36352 0.04096-41.09312-534.24128 0.36352-0.04096c-0.14336-0.90112-0.54272-1.73056-0.54272-2.66752 0-11.35104 9.1904-20.55168 20.54656-20.55168l698.624 0c11.36128 0 20.55168 9.20064 20.55168 20.55168 0 0.94208-0.40448 1.77152-0.54272 2.66752L816.3328-21.30944 816.3328-21.30944zM323.37408 571.86304c0 68.08576 55.20384 123.2896 123.28448 123.2896 68.10624 0 123.2896-55.20384 123.2896-123.2896l0-41.09312L323.37408 530.76992 323.37408 571.86304 323.37408 571.86304zM157.42464 489.6768l124.8512 0 0-87.89504c-12.24192-7.12192-20.54656-20.224-20.54656-35.39456 0-22.70208 18.39616-41.088 41.09312-41.088 22.69696 0 41.09312 18.39104 41.09312 41.088 0 15.17056-8.30976 28.27264-20.54656 35.39456L323.36896 489.6768l246.57408 0 0-87.89504c-12.24192-7.12192-20.55168-20.224-20.55168-35.39456 0-22.70208 18.40128-41.088 41.09312-41.088s41.09824 18.39104 41.09824 41.088c0 15.17056-8.31488 28.27264-20.55168 35.39456L611.03104 489.6768l124.8512 0 31.60576-410.9568L125.83936 78.72 157.42464 489.6768 157.42464 489.6768zM119.5008-3.47136l3.16928 41.088 647.97696 0 3.16928-41.088L119.5008-3.47136 119.5008-3.47136z"  horiz-adv-x="1024" />

    
    <glyph glyph-name="coupon" unicode="&#58903;" d="M934.925 483.514c24.201 16.066 24.878 28.351 24.878 49.757V682.533c0 41.218-33.416 74.634-74.634 74.634H138.83c-41.217 0-74.633-33.416-74.633-74.634v-149.262c0-22.296 1.552-37.168 24.878-49.757 33.988-15.827 74.634-47.805 74.634-99.516 0-67.106-42.183-88.939-73.167-99.403-21.808-13.648-26.346-36.123-26.346-49.86v-149.268c0-41.223 33.416-74.634 74.634-74.634h746.339c41.218 0 74.634 33.41 74.634 74.634V234.73400000000004c0 27.172-6.24 35.784-24.878 49.757-54.338 28.013-74.634 52.95-74.634 99.512 0.001 46.562 19.008 69.732 74.635 99.511zM910.048 243.87v-133.53c0-27.474-22.276-49.756-49.757-49.756H163.708c-27.48 0-49.757 22.28-49.757 49.756V243.87c57.847 20.565 99.513 75.232 99.513 140.128 0 64.902-41.666 119.568-99.513 140.127V657.656c0 27.48 22.276 49.756 49.757 49.756H860.29c27.48 0 49.757-22.275 49.757-49.756v-133.53c-57.842-20.56-99.513-75.227-99.513-140.128 0-64.897 41.671-119.564 99.513-140.129z m-261.22 189.89H554.91l101.95 109.537c4.409 4.817 4.409 12.633 0 17.455l-15.956 17.454c-4.409 4.822-11.548 4.822-15.957 0L511.881 456.73l-113.11 121.515c-4.374 4.782-11.465 4.782-15.833 0l-15.833-17.32c-4.374-4.782-4.374-12.534 0-17.316l102.254-109.85H375.17c-6.872 0-12.44-5.574-12.44-12.44v-24.883c0-6.871 5.568-12.44 12.44-12.44h111.95v-49.755h-111.95c-6.872 0-12.44-5.568-12.44-12.44v-24.877c0-6.867 5.568-12.44 12.44-12.44h111.95v-87.073c0-6.866 5.568-12.439 12.44-12.439h24.877c6.872 0 12.44 5.573 12.44 12.44v87.072h111.95c6.872 0 12.44 5.573 12.44 12.44V321.79999999999995c0 6.872-5.568 12.44-12.44 12.44h-111.95v49.756h111.95c6.872 0 12.44 5.568 12.44 12.44v24.882c0 6.867-5.568 12.44-12.44 12.44z"  horiz-adv-x="1024" />

    
    <glyph glyph-name="daishouhuo" unicode="&#58899;" d="M758.175-21.735c-65.167 0-118.043 52.878-118.043 118.043 0 4.175 0.234 7.886 0.462 11.363h-197.59c-2.783-1.392-5.799-2.09-9.045-2.09h-62.154c-7.651-58.674-57.515-102.739-117.116-102.739-59.369 0-109.463 44.063-117.116 102.739h-61.69a21.28 21.28 0 0 0-21.337 21.337V425.622c0 3.942 1.159 7.886 3.011 11.13l102.739 167.907c24.583 38.96 60.995 58.674 108.539 58.674h144.018c4.405 71.43 63.315 127.09 134.971 127.09h285.025c74.677 0 135.205-60.759 135.205-135.205v-440.869c0-53.805-39.89-99.026-92.996-105.985 0.462-3.942 0.698-8.117 0.698-12.29 0.462-64.934-52.412-117.812-117.579-117.812z m0 193.419c-41.51 0-75.37-33.861-75.37-75.37s33.861-75.37 75.37-75.37 75.37 33.861 75.37 75.37-33.628 75.37-75.37 75.37z m-503.483 24.582c-41.51 0-75.37-33.861-75.37-75.603 0-41.51 33.861-75.37 75.37-75.37s75.37 33.861 75.37 75.37c0 41.744-33.861 75.603-75.37 75.603z m0 42.441c54.268 0 102.275-38.032 114.797-90.677h43.134l0.234 472.874H269.072c-32.701 0-55.658-12.29-72.356-38.727l-99.492-162.57v-271.569h42.441c12.755 52.645 60.759 90.677 115.029 90.677z m398.658-88.593c20.409 39.66 60.528 64.006 105.056 64.006s84.649-24.583 105.056-64.006c34.784 0.698 62.849 29.221 62.849 64.241V655.224c0 51.023-41.51 92.765-92.765 92.765H548.293c-51.023 0-92.765-41.51-92.765-92.765v-505.106h197.824zM174.218 400.117c-11.828 0-21.337 9.507-21.337 21.337s9.507 21.337 21.337 21.337h101.345V544.136c0 11.828 9.507 21.337 21.337 21.337s21.337-9.507 21.337-21.337v-122.681a21.28 21.28 0 0 0-21.337-21.337H174.219z"  horiz-adv-x="1024" />

    
    <glyph glyph-name="fukuan" unicode="&#58966;" d="M840.3 700.6H724.6c-15.6 71.9-79.8 126-156.3 126h-344c-88.2 0-160-71.8-160-160v-605.8c0-65.8 53.6-119.4 119.4-119.4h656.6c65.8 0 119.4 53.6 119.4 119.4V581.2c0 65.9-53.5 119.4-119.4 119.4z m-683.8 33.8c18.2 18.2 42.3 28.2 67.8 28.2h344c25.5 0 49.6-10 67.8-28.2 9.8-9.8 17.2-21.3 21.9-33.7H183.7c-19 0-37-4.5-52.9-12.4 4 17.2 12.8 33.1 25.7 46.1z m683.8-733.3H183.7c-32.9 0-59.7 26.8-59.7 59.7V581.2c0 32.9 26.8 59.7 59.7 59.7h656.6c32.9 0 59.7-26.8 59.7-59.7v-97.5H560.6c-35.3 0-64-28.7-64-64v-186c0-35.3 28.7-64 64-64H900v-109c0-32.8-26.8-59.6-59.7-59.6zM900 419.8v-186H592.6c-17.6 0-32 14.4-32 32v122c0 17.6 14.4 32 32 32H900zM659 326.8m-48 0a48 48 0 1 1 96 0 48 48 0 1 1-96 0Z"  horiz-adv-x="1024" />

    
    <glyph glyph-name="dingdan" unicode="&#58924;" d="M851.642182 599.854545l-192.977455 182.830546v-178.315636c0-2.490182 2.024727-4.514909 4.514909-4.51491h188.462546zM588.846545 791.272727H209.454545A58.181818 58.181818 0 0 1 151.272727 733.090909v-721.454545A58.181818 58.181818 0 0 1 209.454545-46.545455h605.09091a58.181818 58.181818 0 0 1 58.181818 58.181819V530.036364h-209.547637a74.333091 74.333091 0 0 0-74.333091 74.333091V791.272727zM942.545455 11.636364a128 128 0 0 0-128-128H209.454545A128 128 0 0 0 81.454545 11.636364V733.090909A128 128 0 0 0 209.454545 861.090909h444.788364a58.181818 58.181818 0 0 0 40.029091-15.941818l230.097455-218.018909a58.181818 58.181818 0 0 0 18.176-42.24V11.636364z m-698.181819 209.454545h488.727273a34.909091 34.909091 0 0 0 0-69.818182h-488.727273a34.909091 34.909091 0 0 0 0 69.818182z m0 186.181818h488.727273a34.909091 34.909091 0 0 0 0-69.818182h-488.727273a34.909091 34.909091 0 0 0 0 69.818182z"  horiz-adv-x="1024" />

    
    <glyph glyph-name="kefu" unicode="&#59031;" d="M781.892267 149.845333A174.626133 174.626133 0 0 0 610.474667 8.533333H477.866667v102.4h68.266666v-34.133333h64.341334c48.128 0 88.746667 31.9488 101.888 75.776A102.434133 102.434133 0 0 0 648.533333 247.466667v102.4a102.4 102.4 0 0 0 204.8 0v-102.4c0-45.738667-30.037333-84.514133-71.441066-97.621334zM785.066667 384a273.066667 273.066667 0 1 1-546.133334 0v-102.4H170.666667v102.4C170.666667 572.5184 323.4816 725.333333 512 725.333333s341.333333-152.814933 341.333333-341.333333v-136.669867h-68.266666V384zM273.066667 384a34.133333 34.133333 0 0 1-34.133334-34.133333v-102.4a34.133333 34.133333 0 0 1 68.266667 0v102.4a34.133333 34.133333 0 0 1-34.133333 34.133333z m0 68.266667a102.4 102.4 0 0 0 102.4-102.4v-102.4a102.4 102.4 0 0 0-204.8 0v102.4a102.4 102.4 0 0 0 102.4 102.4z m477.866666-68.266667a34.133333 34.133333 0 0 1-34.133333-34.133333v-102.4a34.133333 34.133333 0 0 1 68.266667 0v102.4a34.133333 34.133333 0 0 1-34.133334 34.133333z"  horiz-adv-x="1024" />

    
    <glyph glyph-name="gouwuche" unicode="&#59033;" d="M909.8 631.5c-14.9 18-37.8 28.4-62.8 28.4H311.4l-5.4 28.6c-9.2 48.8-55.1 87.1-104.6 87.1h-80.8c-12.7 0-23.1-10.4-23.1-23.1 0-12.8 10.3-23.1 23.1-23.1h80.8c27.1 0 54.2-22.6 59.3-49.4L349 213.4c9.1-48.8 55.1-87.1 104.6-87.1h381.9c12.7 0 23.1 10.3 23.1 23.1s-10.3 23.1-23.1 23.1h-382c-27.1 0-54.3 22.6-59.3 49.4l-4.1 21.4h387.6c49.5 0 95.5 38.3 104.6 87.1L926 564.2c4.7 24.8-1.3 49.3-16.2 67.3z m-29-58.7l-43.7-233.7c-5-26.8-32.1-49.3-59.3-49.3H381.4l-61.3 323.9H847c11.4 0 21.1-4.1 27.4-11.7 6.2-7.6 8.4-17.9 6.4-29.2zM398.7 81.5c-25.5 0-46.1-20.7-46.1-46.3 0-25.6 20.6-46.3 46.1-46.3s46.1 20.7 46.1 46.3c0 25.6-20.6 46.3-46.1 46.3z m416.5 0c-25.5 0-46.1-20.7-46.1-46.3 0-25.6 20.6-46.3 46.1-46.3s46.1 20.7 46.1 46.3c0 25.6-20.7 46.3-46.1 46.3z"  horiz-adv-x="1024" />

    
    <glyph glyph-name="liwu" unicode="&#59139;" d="M896 597.333333a64 64 0 0 1-64 64h-80.426667a106.666667 106.666667 0 0 1-182.186666 75.52L512 678.826667l-57.386667 57.386666a106.666667 106.666667 0 0 1-150.826666 0A105.386667 105.386667 0 0 1 272.426667 661.333333H192a64 64 0 0 1-64-64v-106.666666h85.333333v-384a106.666667 106.666667 0 0 1 106.666667-106.666667h384a106.666667 106.666667 0 0 1 106.666667 106.666667V490.666667h85.333333zM599.68 705.92a65.28 65.28 0 0 0 90.453333 0 64 64 0 0 0 18.773334-44.586667H554.666667z m-265.813333 0a64 64 0 0 0 90.453333 0L469.333333 661.333333h-154.24a64 64 0 0 0 18.773334 44.8zM170.666667 533.333333v64a21.333333 21.333333 0 0 0 21.333333 21.333334h298.666667v-85.333334H170.666667z m85.333333-426.666666V490.666667h234.666667v-448h-170.666667a64 64 0 0 0-64 64z m512 0a64 64 0 0 0-64-64h-170.666667V490.666667h234.666667z m85.333333 426.666666H533.333333v85.333334h298.666667a21.333333 21.333333 0 0 0 21.333333-21.333334z"  horiz-adv-x="1024" />

    
    <glyph glyph-name="dingdan1" unicode="&#61925;" d="M831.2832 432.0256c-14.1312 0-25.6 11.4688-25.6 25.6v51.0976c0 14.1312 11.4688 25.6 25.6 25.6s25.6-11.4688 25.6-25.6v-51.0976c0-14.1312-11.4688-25.6-25.6-25.6zM831.2832 580.1472c14.1312 0 25.6 11.4688 25.6 25.6v45.1072c0 48.6912-39.6288 88.32-88.32 88.32H654.336V783.36c0 14.1312-11.4688 25.6-25.6 25.6s-25.6-11.4688-25.6-25.6v-44.1344H418.3552V783.36c0 14.1312-11.4688 25.6-25.6 25.6s-25.6-11.4688-25.6-25.6v-44.1344H257.3312c-48.6912 0-88.32-39.6288-88.32-88.32V61.44c0-48.6912 39.6288-88.32 88.32-88.32h511.1808c48.6912 0 88.32 39.6288 88.32 88.32v301.568c0 14.1312-11.4688 25.6-25.6 25.6s-25.6-11.4688-25.6-25.6V61.44c0-20.48-16.64-37.12-37.12-37.12H257.3312c-20.48 0-37.12 16.64-37.12 37.12V650.8544c0 20.48 16.64 37.12 37.12 37.12H367.104v-18.944c0-14.1312 11.4688-25.6 25.6-25.6s25.6 11.4688 25.6 25.6v18.944h184.7808v-18.944c0-14.1312 11.4688-25.6 25.6-25.6s25.6 11.4688 25.6 25.6v18.944h114.2272c20.48 0 37.12-16.64 37.12-37.12v-45.1072c0.0512-14.1312 11.52-25.6 25.6512-25.6zM701.7984 455.936h-384c-14.1312 0-25.6 11.4688-25.6 25.6s11.4688 25.6 25.6 25.6h384c14.1312 0 25.6-11.4688 25.6-25.6s-11.4688-25.6-25.6-25.6zM608.8704 324.608H317.7984c-14.1312 0-25.6 11.4688-25.6 25.6s11.4688 25.6 25.6 25.6h291.072c14.1312 0 25.6-11.4688 25.6-25.6s-11.4688-25.6-25.6-25.6zM514.4064 198.656h-196.608c-14.1312 0-25.6 11.4688-25.6 25.6s11.4688 25.6 25.6 25.6h196.6592c14.1312 0 25.6-11.4688 25.6-25.6s-11.4688-25.6-25.6512-25.6z"  horiz-adv-x="1024" />

    
    <glyph glyph-name="dizhi" unicode="&#59097;" d="M318.8224 690.56c106.9312 106.5472 279.8848 106.5472 386.8416 0a270.848 270.848 0 0 0 79.8976-193.2288 270.848 270.848 0 0 0-73.8304-186.8288l-6.0672-6.2208-132.224-132.4032a86.6816 86.6816 0 0 0-118.7072-3.4816l-3.712 3.4816-132.1984 131.84a272.9216 272.9216 0 0 0-6.0672 380.6208l6.0672 6.2208z m43.4688-43.264a210.8928 210.8928 0 0 1-5.5808-293.5808l5.5808-5.76 131.456-132.0448a25.216 25.216 0 0 1 33.3312-2.2016l2.5088 2.2272 132.7872 132.0192A211.9168 211.9168 0 1 1 362.2912 647.2704zM427.52 581.7088a119.4496 119.4496 0 1 0 169.0624-168.7808 119.4496 119.4496 0 0 0-169.0624 168.7808z m84.736-16.8192a67.584 67.584 0 1 1-0.384-135.1424 67.584 67.584 0 0 1 0.3584 135.168zM709.8624 228.48c-7.424-13.312-3.328-30.0544 9.3952-38.4256 22.016-12.3392 34.0992-25.5488 34.0992-35.1744 0-34.688-109.1584-76.4928-241.3568-76.4928-132.1984 0-241.3568 41.8048-241.3568 76.4928 0 9.6256 12.0576 22.8352 33.7152 34.9184 13.1072 8.6272 17.2032 25.3952 9.7792 38.6816a29.056 29.056 0 0 1-37.632 12.16c-44.672-25.0368-63.6416-54.9632-63.6416-85.76 0-81.408 136.064-134.4512 299.136-134.4512s299.136 53.0432 299.136 134.4512c0 30.7968-18.944 60.7232-63.2064 85.5296L747.52 240.64a29.056 29.056 0 0 1-37.6576-12.16z"  horiz-adv-x="1024" />

    
    <glyph glyph-name="geren" unicode="&#58891;" d="M527.2 333.8c-134.6 0-244.2 109.6-244.2 244.2S392.6 822.2 527.2 822.2 771.4 712.8 771.4 578s-109.6-244.2-244.2-244.2z m0 432.4c-103.8 0-188.2-84.4-188.2-188.2s84.4-188.2 188.2-188.2 188.2 84.4 188.2 188.2-84.4 188.2-188.2 188.2zM853.2-56.6h-652c-37.4 0-68 30.6-68 68 0 163.8 133.2 297 297 297h194.2c163.8 0 297-133.2 297-297-0.2-37.4-30.6-68-68.2-68zM430.2 252.4c-64 0-124.4-25.2-170.2-70.8-45.6-45.6-70.8-106-70.8-170.2 0-6.6 5.4-12 12-12h652c6.6 0 12 5.4 12 12 0 64-25.2 124.4-70.8 170.2-45.6 45.6-106 70.8-170.2 70.8h-194z"  horiz-adv-x="1024" />

    
    <glyph glyph-name="shangcheng" unicode="&#58941;" d="M777.33926562 781.08187734c25.83602227 0 45.44165391-13.39533984 52.12425059-35.42278447l0.44215664-1.42696055 0.45220606-1.43700908 73.96076425-199.11122051v-1.00490185l2.22083262-7.17499775c20.09803359-65.09753086-6.24043916-136.89775723-62.37424775-170.4011792-16.93259385-10.0490168-38.31690146-15.31470146-62.8164044-15.31470147-39.19116622 0-75.74948877 18.67107305-100.69114922 50.73748593l-34.30734345 44.07498809-34.30734346-44.03479218c-24.5798956-31.75489336-60.90709131-50.2953293-99.35462989-50.73748594-39.19116622 0.48235254-75.28723418 18.67107305-99.79678652 50.73748594l-34.34753935 44.03479218-34.29729492-44.51714473c-24.95170898-32.06641289-61.93209112-50.7274374-100.69114922-50.7274374h-0.45220518c-24.05734629 0-44.99949727 4.78333213-61.47988594 14.83234893-43.62278203 25.36371826-70.38331435 73.70953857-70.38331348 126.83869102a154.95583974 154.95583974 0 0 0 6.68259581 44.98944873l0.45220606 1.43700908 0.44215664 1.43700908 79.74899735 205.34161113 0.44215752 1.42696055 0.45220518 1.91936162c6.6825958 21.10293545 24.49950292 33.50342198 48.99900674 33.50342285h528.87975733m0 47.8634669H248.91171347c-44.55734063 0-78.86468408-25.84607168-91.33551386-66.05218741L76.96298604 555.5919873099999c-0.44215664-1.43700908-0.8943627-2.86396963-1.33651934-4.78333213a209.01955078 209.01955078 0 0 1-8.90342842-59.8318462c0-70.34311846 35.63381426-135.45069873 93.55634649-168.9541207 23.61518965-13.88774092 51.68209394-20.59043555 82.86419356-20.59043555h0.45220516c52.12425058 0 101.5754625 24.89141513 134.98844414 67.9715499 32.97082412-43.08013565 82.40193808-67.48919737 134.10412999-67.9715499 51.68209394 0.48235254 100.69114922 25.37376768 133.6519248 67.9715499 33.41298076-43.08013565 82.87424209-67.9715499 135.44064932-67.9715499 32.07646143 0.48235254 60.59557177 7.65735117 84.21076143 21.54509209 74.362725 44.98944873 109.59457763 139.76172685 82.86419267 227.34895781v1.43700909a28.63969805 28.63969805 0 0 1-1.77867597 5.74803809L871.78997568 760.98384375c-12.90293789 41.63307715-49.00905527 67.94140342-94.45071006 67.94140253z m0 0M243.59578349 296.42784228999994c-33.01102002 0-61.65071807 7.13480185-85.57742724 21.20342607C98.80954912 351.87831797 62 418.33246612 62 491.0270543a215.04896104 215.04896104 0 0 0 9.13455615 61.39949326c0.40196075 1.74852862 0.87426474 3.28602833 1.36666671 4.83357656L153.25512208 764.84266582C166.43943213 807.37010567 203.14849062 833.94975469 248.91171347 833.94975469h528.42755216c47.38111435 0 85.24580977-27.32327666 98.92252265-71.34801943l75.20684238-203.150925a33.43307872 33.43307872 0 0 0 1.90931309-6.12990088l0.20098037-2.12034199c26.73038497-88.79311318-9.04411494-186.47960625-85.27595713-232.56439805-24.20808135-14.23945723-53.25978955-21.68577862-86.42154551-22.18822911-52.1744959 0-101.22374708 23.70563086-135.51099257 65.25831622-33.81494151-41.07033193-82.21100713-64.77596279-133.65192393-65.25831622-52.09410322 0.46225459-100.64090391 24.15783691-134.17447324 65.19802149-34.24704961-41.51248857-83.12546777-65.21811943-134.94824825-65.21811943z m135.01859063 80.95488047l3.60759726-4.72303829c31.80513867-41.54263594 79.3872334-65.64017812 130.50658214-66.11248213 50.41591787 0.47230401 97.83722813 24.56984619 130.00413164 66.13258008l3.6176458 4.67279297 3.61764579-4.66274355c32.60906016-42.03503789 80.663458-66.14262862 131.83305294-66.1426295 31.54386357 0.47230401 59.13846386 7.51666465 81.92963408 20.92205303 72.53380371 43.8237624 106.42913789 136.91785518 80.67350742 221.32959697l-0.24117627 2.37156768a22.04754258 22.04754258 0 0 1-1.28627403 4.15024453l-75.46811659 203.78401259c-12.43063388 40.06543008-46.91885977 64.79606074-90.06933867 64.79606075H248.91171347c-41.60292979 0-74.88527344-23.9769545-86.86370126-62.58527666L81.31421006 553.69272363c-0.30147011-1.00490185-0.70343086-2.31127383-1.12548956-4.06985185a205.29136583 205.29136583 0 0 1-8.75269336-58.59581748c0-68.96640323 34.90023516-132.00388594 91.08428819-164.50240606 22.54999394-13.26470185 49.6622417-19.9774459 80.62326299-19.9774459 51.33037852 0 99.22399278 24.11764013 131.82300351 66.14262949zM243.59578349 344.29131006q-38.90979317 0-64.31370732 15.49558389c-44.85881162 26.05710058-72.77497998 76.37252783-72.77498086 131.24016035a159.4979956 159.4979956 0 0 0 6.92377295 46.59729081l0.8943627 2.86397052 80.54287031 208.30607051c7.55686055 23.89656182 27.0419045 37.3521955 53.58135761 37.3521955h528.88980674c27.63479619 0 49.33062422-14.91274072 56.6061126-38.91984258l0.87426387-2.84387167 76.19164629-207.24087481c20.79141592-67.48919737-6.36102773-141.69113789-64.55488447-176.43058946-17.83700508-10.58161465-39.74386201-15.94778994-65.10758027-15.94778906-40.30660635 0-78.32203769 19.163475-104.30879502 52.56640723l-30.68969766 39.38209629-30.64950176-39.39214571c-25.50440479-32.94067763-63.01738477-52.09410322-102.92203037-52.55635781-40.64827325 0.5124999-78.38233154 19.6759749-103.50487354 52.59655372l-30.64950175 39.34190126-30.70979562-39.88454766c-26.00685528-33.37278487-64.02228662-52.52621133-104.31884443-52.52621132z m4.90392071 431.73591152c-22.25857237 0-38.48773447-10.97352685-44.54729209-30.07670713l-0.89436269-3.34632304-80.64336007-208.19553135a150.61466513 150.61466513 0 0 1-6.44141953-43.38160576c0-51.14949609 26.03700263-98.04825791 67.93135401-122.39702578 15.5056333-9.44607568 35.40268652-14.21935928 59.2389545-14.2193584 37.95513662 0 73.35782315 17.82695567 97.52570859 48.91861406l37.87474482 49.17988829 37.96518516-48.65733985c23.41420927-30.63945234 58.47522891-48.46640801 96.23943456-48.93871202 37.02057802 0.42205869 71.9308626 18.25906377 95.67669024 48.91861407l37.92498926 48.65733984 37.91494072-48.63724189c24.19803281-31.15195224 59.58062138-48.93871201 97.08355196-48.93871202 23.41420927 0 44.34631172 5.08480224 60.53527792 14.69166241 54.26469141 32.36788301 79.54801787 101.4950707 60.18356162 164.38181836l-2.46200888 8.76274277-74.60390127 201.29185723c-6.02941026 20.04778828-23.88651328 31.98602109-47.6624874 31.98602021zM768.79760205 618.90079365H241.06343135c-18.28921114 0-32.92057969-16.21911357-32.92057881-35.86494112s14.63136855-35.37253916 32.92057881-35.37253915h527.27191523c18.28921114 0 33.38283428 15.22426026 33.38283428 35.37253915s-14.63136855 35.86494112-32.92057881 35.86494112zM222.65363252-60.93529569999998c-55.26959239 0-99.79678652 48.33577089-99.79678653 107.69531396V222.89918612999998c0 13.39533984 9.79779112 23.92670918 22.26862179 23.92670918s22.27867031-10.53136933 22.27867031-23.92670918V46.76001826000004c0-33.03111885 24.95170898-59.83184619 55.26959238-59.83184619l569.82950156 0.472304c30.29778545 0.48235254 55.26959239 27.28308076 55.26959326 59.8318462l-0.45220605 179.01318603c0 13.40538838 9.80784052 23.93675859 22.27867031 23.9367586s22.27867031-10.53136933 22.27867032-23.9367586l0.44215751-179.01318603c0-58.86714112-44.54729209-107.21296143-99.79678652-107.69531397zM222.65363252-66c-57.63111152 0-104.50977539 50.58675088-104.50977539 112.74996973V222.89918612999998c0 16.24926006 11.84779072 28.99141347 26.98161065 28.99141348s26.99165917-12.74215342 26.99165917-28.99141348v-176.14921641c0-30.14705039 22.67058164-54.75709336 50.53650557-54.75709336l569.82950156 0.47230401c27.83577656 0.4321081 50.53650557 25.01200283 50.53650645 54.7671419l-0.44215665 179.0031375c0 16.269358 11.84779072 29.00146289 26.98160977 29.00146289s26.98161065-12.73210401 26.98161065-28.99141436l0.45220518-179.0031375c0-61.68086543-46.85856592-112.25756777-104.5097754-112.77006679zM145.12546777 241.77123955000002c-9.84803643 0-17.56568145-8.29043877-17.56568144-18.87205342v-176.14921641c0-56.58601377 42.65807695-102.63060967 95.09384619-102.63060966l569.82950156 0.49240195c52.4257207 0.47230401 95.09384707 46.50685049 95.09384707 102.6406582l-0.45220605 179.0031375c0 10.59166406-7.71764502 18.88210283-17.56568145 18.88210284s-17.56568145-8.29043877-17.56568144-18.8720543l0.44215664-179.0031375c0-35.27204942-26.86102208-64.38405146-59.88209151-64.89655049l-569.89984482-0.47230401c-33.06126533 0-59.9624833 29.14214854-59.9624833 64.87645343V222.89918612999998c0 10.58161465-7.71764502 18.87205342-17.56568144 18.87205342z"  horiz-adv-x="1024" />

    
    <glyph glyph-name="biaoqiankuozhan_shouye-351" unicode="&#60368;" d="M901.888 399.9232L810.6496 485.888a340.1216 340.1216 0 0 1-156.5184 37.9392c-188.8256 0-341.8624-153.088-341.8624-341.8624 0-61.8496 16.4864-119.7568 45.2096-169.8304h49.2544c16.64 0 30.1568 13.4144 30.1568 29.952v198.3488c0 16.5376 13.5168 29.952 30.1568 29.952h89.856c16.64 0 30.1568-13.4144 30.1568-29.952v-198.3488c0-16.5376 13.5168-29.952 30.1568-29.952h176.4864c16.64 0 30.1568 13.4144 30.1568 29.952v276.1216c0 16.5376 13.5168 29.952 30.1568 29.952h27.0336c27.3408 0 40.6016 33.0752 20.8384 51.7632zM793.7536-8.34559999999999h-176.4864c-27.904 0-50.6368 22.6304-50.6368 50.432v198.3488c0 5.2224-4.352 9.472-9.6768 9.472H467.0976c-5.3248 0-9.6768-4.2496-9.6768-9.472v-198.3488c0-27.8016-22.7328-50.432-50.6368-50.432H230.2464c-27.904 0-50.6368 22.6304-50.6368 50.432v276.1216c0 5.2224-4.352 9.472-9.6768 9.472H142.848c-20.9408 0-39.424 12.544-47.104 31.8976-7.68 19.3024-2.816 40.96 12.288 55.1936l369.152 347.7504c19.5072 18.3808 50.0736 18.3808 69.5808 0l369.152-347.7504c15.104-14.2336 19.968-35.9424 12.288-55.1936-7.68-19.4048-26.1632-31.8976-47.104-31.8976h-27.0336c-5.3248 0-9.6768-4.2496-9.6768-9.472v-276.1216c0-27.8016-22.6816-50.432-50.6368-50.432z m-326.656 299.2128h89.856c27.904 0 50.6368-22.6304 50.6368-50.432v-198.3488c0-5.2224 4.352-9.472 9.6768-9.472h176.4864c5.3248 0 9.6768 4.2496 9.6768 9.472v276.1216c0 27.8016 22.7328 50.432 50.6368 50.432h27.0336c5.9904 0 8.2944 4.2496 9.0112 6.0416 0.8704 2.2016 1.7408 6.4512-2.304 10.2912l-369.152 347.7504c-3.7888 3.5328-9.6768 3.5328-13.4144 0l-369.152-347.7504c-4.0448-3.84-3.1744-8.0896-2.304-10.2912 0.7168-1.8432 3.072-6.0416 9.0112-6.0416h27.0336c27.904 0 50.6368-22.6304 50.6368-50.432v-276.1216c0-5.2224 4.352-9.472 9.6768-9.472h176.4864c5.3248 0 9.6768 4.2496 9.6768 9.472v198.3488c0.1024 27.8016 22.8352 50.432 50.7904 50.432z"  horiz-adv-x="1024" />

    
    <glyph glyph-name="xinheart118" unicode="&#59221;" d="M677.51936 703.96928c113.1008 0 204.8-91.6992 204.8-204.77952 0-186.91072-370.3296-435.15904-370.3296-435.15904S141.68064 303.32928 141.68064 499.18976c0 140.78976 91.6992 204.77952 204.77952 204.77952 68.11648 0 128.28672-33.40288 165.5296-84.55168C549.24288 670.5664 609.41312 703.96928 677.51936 703.96928z"  horiz-adv-x="1024" />

    
    <glyph glyph-name="dianhua" unicode="&#58898;" d="M682.25 430.738c0-16.695 11.115-27.811 27.81-27.811s27.812 11.116 27.812 27.811A167.395 167.395 0 0 1 570.96 597.65c-16.695 0-27.811-11.116-27.811-27.811s11.16-27.812 27.811-27.812a111.597 111.597 0 0 0 111.29-111.289z m111.289 0c0-16.695 11.115-27.811 27.81-27.811s27.812 11.116 27.812 27.811c0 152.984-125.217 278.201-278.2 278.201-16.696 0-27.812-11.16-27.812-27.855s11.16-27.811 27.811-27.811c122.405 0 222.579-100.174 222.579-222.535zM417.976 528.1c30.623 30.579 33.391 77.898 5.58 111.289L337.31 747.866c-27.811 36.16-80.666 41.74-116.869 13.928-2.768-2.812-5.536-2.812-5.536-5.58l-75.13-75.13c-72.318-72.318 30.623-267.041 217.042-453.417C543.15 41.292 735.06-58.88 807.378 10.67l75.13 75.13c33.392 33.391 33.392 86.246 0 116.825l-5.536 5.58-108.52 86.246c-33.348 27.81-80.623 25.043-111.246-5.58l-47.275-47.319c-50.087 30.623-94.593 64.014-133.564 102.941-38.927 38.971-72.275 83.478-102.898 133.565l44.507 50.043z m-38.927 75.13c8.348-11.16 8.348-27.855-2.812-36.203l-61.202-63.97a29.569 29.569 0 0 1-5.536-33.392 721.425 721.425 0 0 1 122.405-164.1 721.512 721.512 0 0 1 164.1-122.405 29.569 29.569 0 0 1 33.39 5.58l63.971 63.97c11.16 11.116 25.043 11.116 36.203 2.769l108.477-89.014s2.768 0 2.768-2.768a26.889 26.889 0 0 0 0-38.971l-75.13-75.13c-36.115-36.115-208.606 55.666-372.75 217.042-164.1 161.332-253.114 336.548-216.955 372.75l77.854 77.899c11.16 8.348 30.623 8.348 38.971-5.58l86.246-108.521z"  horiz-adv-x="1024" />

    
    <glyph glyph-name="xiangzuo" unicode="&#59056;" d="M452.374351 884.234875 19.107766 446.90664c-0.646988-0.646988-0.862651-1.50964-1.401808-2.156628-0.107831-0.107831-0.431326-0.215663-0.539157-0.323494-15.419891-15.527722-15.31206-40.65244 0.215663-56.072331l437.256347-433.266585c15.527722-15.419891 40.544608-15.31206 55.964499 0.215663 7.584142 7.691974 11.430129 17.864069 11.430129 27.928334 0 10.172096-3.953818 20.416079-11.753623 28.143997L100.951803 417.037341l407.602711 411.448697c7.584142 7.691974 11.430129 17.756238 11.430129 27.928334 0 10.279927-3.953818 20.416079-11.753623 28.143997C492.91896 899.97826 467.794242 899.762597 452.374351 884.234875L452.374351 884.234875z"  horiz-adv-x="1024" />

    
    <glyph glyph-name="xiangshang" unicode="&#59057;" d="M944.43385 100.195236 535.669072 505.220852c-0.592494 0.592494-1.407046 0.779759-2.033309 1.333368-0.147356 0.146333-0.186242 0.37146-0.333598 0.518816-14.543228 14.358009-37.97694 14.284331-52.373835-0.225127L75.942623 98.122017c-14.396895-14.544251-14.290471-37.938054 0.220011-52.341089 7.218402-7.139607 16.657378-10.731412 26.061562-10.731412 9.511631 0 19.061125 3.665483 26.279526 10.957563l379.226021 382.66433 384.590192-381.037273c7.218402-7.144724 16.616446-10.737552 26.055422-10.737552 9.550517 0 19.061125 3.665483 26.285666 10.957563C959.057919 62.362582 958.943308 85.798341 944.43385 100.195236L944.43385 100.195236zM944.43385 100.195236"  horiz-adv-x="1024" />

    
    <glyph glyph-name="xiangxia" unicode="&#58981;" d="M928 592c0-7-2.4-13.9-7.4-19.6l-387.2-417c-11.7-12.2-31.2-12.2-42.9 0l-387.2 417c-10.8 12.2-9.7 31.1 2.8 41.9 12.4 10.9 31.1 9.6 41.9-2.8l364-388.1 363.9 388.2c10.8 12.4 29.5 13.6 41.9 2.8 6.8-5.9 10.2-14.2 10.2-22.4z"  horiz-adv-x="1024" />

    
    <glyph glyph-name="you" unicode="&#59019;" d="M270.9504 757.3504l72.4992 72.4992 409.6-409.6a51.2 51.2 0 0 0 0-72.4992l-409.6-409.6-72.4992 72.4992L644.4032 384 270.9504 757.3504z"  horiz-adv-x="1024" />

    
    <glyph glyph-name="daohang" unicode="&#59107;" d="M512 404.48l286.72 286.72-522.24-174.08L512 404.48zM137.216 558.0799999999999L866.304 799.744c16.384 6.144 34.816-4.096 40.96-20.48 2.048-6.144 2.048-14.336 0-20.48L665.6 29.696000000000026c-6.144-16.384-24.576-26.624-40.96-20.48-8.192 2.048-14.336 8.192-18.432 16.384L450.56 343.03999999999996 133.12 496.64c-16.384 8.192-22.528 26.624-14.336 43.008 2.048 8.192 10.24 14.336 18.432 18.432z"  horiz-adv-x="1024" />

    


  </font>
</defs>
</svg>
